# xmcd CD database file
#
# Track frame offsets:
#	150
#	18197
#	34562
#	50311
#
# Disc length: 890 seconds
#
# Revision: 0
# Processed by: cddbd v1.5.1PL2 Copyright (c) Steve Scherf et al.
# Submitted via: CDex 1.60beta1
#
DISCID=21037804
DTITLE=Aleyce Simmonds - Mighty Mighty Love (Single)
DYEAR=2005
DGENRE=Country
TTITLE0=Mighty Mighty Love
TTITLE1=Another Great Divide
TTITLE2=Even When I'm Sleeping
TTITLE3=Burn For You
EXTD=YEAR: 2005
EXTT0=
EXTT1=
EXTT2=
EXTT3=
PLAYORDER=
